<svg width="214" height="65" viewBox="0 0 214 65" fill="none" xmlns="http://www.w3.org/2000/svg">
<path fill-rule="evenodd" clip-rule="evenodd" d="M31.4154 31.9705C34.1557 28.4682 38.5439 26.1993 43.4899 26.1993C48.4649 26.1993 52.8754 28.495 55.6125 32.0324C55.4959 32.1462 55.3899 32.2642 55.2938 32.382C54.7924 32.9988 54.4152 33.7934 54.113 34.6003C53.5044 36.2231 53.0402 38.3429 52.6105 40.3278L52.5722 40.5063C52.1434 42.4876 51.7448 44.3303 51.2629 45.6982C51.0464 46.3127 50.8411 46.7472 50.659 47.0254C50.469 46.7449 50.2534 46.3052 50.0253 45.6818C49.5098 44.2747 49.0763 42.3607 48.6167 40.317L48.6018 40.2501V40.25C48.1602 38.2871 47.6917 36.2043 47.1076 34.61C46.8142 33.8091 46.4542 33.0225 45.9832 32.4113C45.5211 31.8116 44.7517 31.1347 43.6266 31.1347C42.5085 31.1347 41.7356 31.8042 41.2667 32.3972C40.7867 33.0045 40.4125 33.7878 40.1042 34.5891C39.4834 36.2026 38.9758 38.3133 38.5034 40.301L38.4546 40.5063C37.9869 42.4753 37.5496 44.3162 37.0532 45.6867C36.8637 46.21 36.6849 46.6083 36.5231 46.8927C36.3649 46.6096 36.1905 46.214 36.0062 45.6951C35.53 44.3538 35.1128 42.5644 34.6648 40.6426L34.5864 40.3063C34.1222 38.3174 33.6185 36.2029 32.9889 34.5843C32.676 33.7801 32.2933 32.9928 31.7982 32.3828C31.686 32.2447 31.5586 32.1045 31.4154 31.9705ZM29.7569 34.6596C29.8874 34.9045 30.0254 35.208 30.1682 35.575C30.7132 36.976 31.175 38.8877 31.6505 40.9249L31.743 41.3219C32.1759 43.1807 32.6263 45.1144 33.1568 46.6083C33.4389 47.4028 33.7796 48.181 34.2178 48.7858C34.6322 49.3578 35.3756 50.0967 36.5186 50.0967C37.6584 50.0967 38.4036 49.3614 38.8208 48.792C39.2627 48.1886 39.609 47.4112 39.8968 46.6162C40.4486 45.0927 40.9184 43.1138 41.368 41.2199V41.2198L41.4368 40.9303C41.9212 38.8918 42.3876 36.9763 42.9286 35.5702C43.1793 34.9187 43.4139 34.4649 43.6182 34.1833C43.8118 34.4625 44.033 34.9091 44.2676 35.5493C44.7832 36.9566 45.2163 38.8705 45.676 40.9142L45.691 40.9811C46.1325 42.9441 46.601 45.027 47.1851 46.6211C47.4785 47.4223 47.8386 48.2089 48.3095 48.8199C48.7718 49.4198 49.541 50.0967 50.666 50.0967C51.797 50.0967 52.5634 49.4136 53.0202 48.8084C53.484 48.1943 53.8327 47.405 54.1144 46.6052C54.6559 45.0687 55.0864 43.0752 55.497 41.1788V41.1787L55.5558 40.9034C55.9978 38.8622 56.422 36.9558 56.946 35.559C57.0594 35.2551 57.1712 34.996 57.2778 34.7784C58.0805 36.5265 58.5257 38.4567 58.5257 40.4857C58.5257 48.3757 51.7942 54.7721 43.4899 54.7721C35.1857 54.7721 28.4539 48.3757 28.4539 40.4857C28.4539 38.4106 28.9195 36.4388 29.7569 34.6596ZM43.4899 23.342C33.5249 23.342 25.4467 31.0175 25.4467 40.4857C25.4467 49.9538 33.5249 57.6292 43.4899 57.6292C53.4551 57.6292 61.5329 49.9538 61.5329 40.4857C61.5329 31.0175 53.4551 23.342 43.4899 23.342ZM43.8336 33.9442C43.8336 33.9445 43.8301 33.9472 43.8231 33.9511C43.8301 33.9458 43.8336 33.9438 43.8336 33.9442ZM43.418 33.9461C43.411 33.9421 43.4075 33.9393 43.4075 33.9389C43.4075 33.9385 43.4111 33.9406 43.418 33.9461ZM50.4373 47.2966C50.4373 47.2966 50.4406 47.2935 50.4471 47.2896C50.4406 47.2949 50.4373 47.2971 50.4373 47.2966ZM50.8746 47.2851C50.8815 47.2891 50.8853 47.2918 50.8853 47.2922C50.8853 47.2926 50.8815 47.2904 50.8746 47.2851ZM36.2105 47.3223C36.2104 47.3218 36.2148 47.3178 36.2234 47.3121C36.2148 47.3196 36.2105 47.3227 36.2105 47.3223ZM36.8195 47.3148C36.8281 47.3205 36.8324 47.3245 36.8324 47.3249C36.8323 47.3254 36.828 47.3227 36.8195 47.3148Z" fill="#81818B"/>
<path d="M71.4958 50.6351L67.1205 36.4144H70.953L73.5481 46.6498L76.5652 36.4144H80.8503L83.868 46.6498L86.493 36.4144H90.3255L85.9197 50.6351H81.9066L78.7078 39.9982L75.5095 50.6351H71.4958Z" fill="#81818B"/>
<path d="M95.9488 50.9793C94.6615 50.9793 93.6052 50.7877 92.7804 50.4055C91.9562 50.0042 91.3424 49.4786 90.9398 48.8287C90.5376 48.1788 90.3365 47.4621 90.3365 46.6785C90.3365 45.3597 90.8794 44.2893 91.9656 43.4674C93.0519 42.6455 94.682 42.2346 96.8544 42.2346H100.656V41.8905C100.656 40.9157 100.365 40.199 99.7813 39.7402C99.198 39.2815 98.4735 39.0522 97.6089 39.0522C96.824 39.0522 96.1399 39.2337 95.5566 39.5969C94.9734 39.9409 94.6111 40.457 94.4704 41.1451H90.6983C90.7991 40.113 91.1613 39.2146 91.7845 38.45C92.4287 37.6855 93.2535 37.1025 94.2588 36.7012C95.2653 36.2807 96.3914 36.0704 97.6388 36.0704C99.7713 36.0704 101.451 36.5769 102.678 37.5899C103.905 38.603 104.519 40.0366 104.519 41.8905V50.6351H101.229L100.868 48.3416C100.425 49.1061 99.8012 49.7366 98.9969 50.2338C98.2121 50.7306 97.1962 50.9793 95.9488 50.9793ZM96.824 48.112C97.9307 48.112 98.7854 47.7678 99.3886 47.0798C100.012 46.3919 100.405 45.5411 100.566 44.5282H97.2765C96.2507 44.5282 95.5167 44.7098 95.0736 45.0729C94.6316 45.4168 94.41 45.8472 94.41 46.3631C94.41 46.9175 94.6316 47.3475 95.0736 47.6532C95.5167 47.9589 96.0995 48.112 96.824 48.112Z" fill="#81818B"/>
<path d="M110.599 50.6351L105.107 36.4144H109.15L112.952 47.1661L116.755 36.4144H120.798L115.276 50.6351H110.599Z" fill="#81818B"/>
<path d="M128.562 50.9793C127.054 50.9793 125.716 50.6732 124.549 50.0617C123.383 49.4498 122.468 48.5898 121.803 47.4811C121.139 46.3728 120.808 45.092 120.808 43.6394C120.808 42.1677 121.13 40.8584 121.773 39.7116C122.437 38.5648 123.342 37.676 124.489 37.0452C125.655 36.3954 127.023 36.0704 128.593 36.0704C130.061 36.0704 131.359 36.3762 132.486 36.9879C133.612 37.5995 134.487 38.4405 135.111 39.5109C135.754 40.5621 136.077 41.7376 136.077 43.0373C136.077 43.2476 136.066 43.4674 136.046 43.6967C136.046 43.9262 136.036 44.165 136.016 44.4135H124.64C124.72 45.5221 125.123 46.3919 125.847 47.0228C126.591 47.6532 127.487 47.9687 128.533 47.9687C129.317 47.9687 129.971 47.8063 130.494 47.4811C131.037 47.1373 131.439 46.6976 131.701 46.1622H135.623C135.342 47.0608 134.869 47.8828 134.205 48.6283C133.561 49.3543 132.757 49.9277 131.791 50.3484C130.846 50.7687 129.769 50.9793 128.562 50.9793ZM128.593 39.0522C127.648 39.0522 126.812 39.3102 126.088 39.8262C125.364 40.3232 124.901 41.0878 124.7 42.1199H132.153C132.093 41.1833 131.731 40.4379 131.067 39.8836C130.403 39.3293 129.579 39.0522 128.593 39.0522Z" fill="#81818B"/>
<path d="M138.118 50.635V29.9922H141.98V50.635H138.118Z" fill="#81818B"/>
<path d="M151.991 50.9793C150.483 50.9793 149.145 50.6732 147.978 50.0617C146.812 49.4498 145.897 48.5898 145.233 47.4811C144.568 46.3728 144.237 45.092 144.237 43.6394C144.237 42.1677 144.559 40.8584 145.202 39.7116C145.866 38.5648 146.771 37.676 147.918 37.0452C149.085 36.3954 150.453 36.0704 152.022 36.0704C153.49 36.0704 154.788 36.3762 155.915 36.9879C157.041 37.5995 157.917 38.4405 158.54 39.5109C159.183 40.5621 159.506 41.7376 159.506 43.0373C159.506 43.2476 159.495 43.4674 159.475 43.6967C159.475 43.9262 159.465 44.165 159.445 44.4135H148.069C148.149 45.5221 148.552 46.3919 149.276 47.0228C150.02 47.6532 150.916 47.9687 151.962 47.9687C152.746 47.9687 153.4 47.8063 153.923 47.4811C154.466 47.1373 154.868 46.6976 155.13 46.1622H159.053C158.771 47.0608 158.298 47.8828 157.635 48.6283C156.99 49.3543 156.186 49.9277 155.22 50.3484C154.275 50.7687 153.199 50.9793 151.991 50.9793ZM152.022 39.0522C151.077 39.0522 150.242 39.3102 149.517 39.8262C148.793 40.3232 148.331 41.0878 148.129 42.1199H155.582C155.522 41.1833 155.16 40.4379 154.496 39.8836C153.832 39.3293 153.008 39.0522 152.022 39.0522Z" fill="#81818B"/>
<path d="M167.733 50.9793C166.405 50.9793 165.238 50.7784 164.233 50.3772C163.226 49.9564 162.422 49.3831 161.818 48.6566C161.215 47.9306 160.853 47.0896 160.732 46.134H164.625C164.745 46.6878 165.068 47.1661 165.591 47.5674C166.133 47.9496 166.827 48.1408 167.672 48.1408C168.517 48.1408 169.131 47.9784 169.513 47.6532C169.915 47.3285 170.117 46.9555 170.117 46.5352C170.117 45.9234 169.835 45.5124 169.272 45.3022C168.709 45.0729 167.924 44.8532 166.918 44.6429C166.275 44.5091 165.621 44.3466 164.957 44.1555C164.293 43.9644 163.68 43.7254 163.116 43.4388C162.573 43.1329 162.13 42.7506 161.788 42.2919C161.446 41.814 161.276 41.2311 161.276 40.543C161.276 39.2815 161.798 38.2207 162.845 37.3606C163.911 36.5005 165.399 36.0704 167.31 36.0704C169.081 36.0704 170.489 36.4622 171.535 37.2459C172.601 38.0296 173.235 39.1095 173.436 40.4857H169.785C169.563 39.4344 168.728 38.9088 167.281 38.9088C166.556 38.9088 165.993 39.0426 165.591 39.3102C165.208 39.5778 165.017 39.9122 165.017 40.3136C165.017 40.7342 165.309 41.0686 165.892 41.3171C166.476 41.5656 167.25 41.7949 168.216 42.0052C169.261 42.2346 170.217 42.4926 171.082 42.7793C171.967 43.0469 172.671 43.4579 173.195 44.0122C173.718 44.5473 173.979 45.3212 173.979 46.3343C173.999 47.2139 173.757 48.0067 173.255 48.7141C172.752 49.4211 172.028 49.9754 171.082 50.3772C170.137 50.7784 169.02 50.9793 167.733 50.9793Z" fill="#81818B"/>
<path d="M182.379 50.9793C181.052 50.9793 179.885 50.7784 178.879 50.3772C177.873 49.9564 177.069 49.3831 176.465 48.6566C175.862 47.9306 175.499 47.0896 175.379 46.134H179.272C179.392 46.6878 179.714 47.1661 180.237 47.5674C180.78 47.9496 181.474 48.1408 182.319 48.1408C183.164 48.1408 183.778 47.9784 184.16 47.6532C184.562 47.3285 184.764 46.9555 184.764 46.5352C184.764 45.9234 184.482 45.5124 183.918 45.3022C183.355 45.0729 182.571 44.8532 181.565 44.6429C180.921 44.5091 180.267 44.3466 179.603 44.1555C178.94 43.9644 178.326 43.7254 177.763 43.4388C177.22 43.1329 176.777 42.7506 176.435 42.2919C176.093 41.814 175.922 41.2311 175.922 40.543C175.922 39.2815 176.445 38.2207 177.491 37.3606C178.558 36.5005 180.046 36.0704 181.957 36.0704C183.727 36.0704 185.135 36.4622 186.182 37.2459C187.247 38.0296 187.881 39.1095 188.083 40.4857H184.431C184.21 39.4344 183.375 38.9088 181.927 38.9088C181.202 38.9088 180.639 39.0426 180.237 39.3102C179.855 39.5778 179.664 39.9122 179.664 40.3136C179.664 40.7342 179.955 41.0686 180.539 41.3171C181.122 41.5656 181.896 41.7949 182.862 42.0052C183.908 42.2346 184.864 42.4926 185.729 42.7793C186.614 43.0469 187.318 43.4579 187.841 44.0122C188.364 44.5473 188.626 45.3212 188.626 46.3343C188.646 47.2139 188.404 48.0067 187.901 48.7141C187.398 49.4211 186.675 49.9754 185.729 50.3772C184.783 50.7784 183.667 50.9793 182.379 50.9793Z" fill="#81818B"/>
</svg>
