<svg width="77" height="76" viewBox="0 0 77 76" fill="none" xmlns="http://www.w3.org/2000/svg">
<g clip-path="url(#clip0_1_229)">
<path opacity="0.06" d="M55.267 0H21.4911C9.94339 0 0.582153 9.36124 0.582153 20.9089V54.6848C0.582153 66.2325 9.94339 75.5938 21.4911 75.5938H55.267C66.8147 75.5938 76.1759 66.2325 76.1759 54.6848V20.9089C76.1759 9.36124 66.8147 0 55.267 0Z" fill="#0089FF"/>
<path d="M38.3791 63.5373C52.5952 63.5373 64.1195 52.013 64.1195 37.7969C64.1195 23.5809 52.5952 12.0565 38.3791 12.0565C24.1631 12.0565 12.6387 23.5809 12.6387 37.7969C12.6387 52.013 24.1631 63.5373 38.3791 63.5373Z" fill="#1B76FF"/>
<path fill-rule="evenodd" clip-rule="evenodd" d="M24.9692 32.7031H29.615V50.8643H24.9692C24.2697 50.8643 23.7026 50.3242 23.7026 49.658V33.9094C23.7026 33.2432 24.2697 32.7031 24.9692 32.7031Z" stroke="white" stroke-width="1.60838" stroke-linecap="round" stroke-linejoin="round"/>
<path fill-rule="evenodd" clip-rule="evenodd" d="M51.643 47.4641C51.3489 49.7275 49.8366 50.8642 47.1482 50.8642H33.0806C31.1692 50.8642 29.615 49.4013 29.615 47.6025V32.7249C34.0762 32.29 36.3068 30.7326 36.3068 26.5448V24.5379C36.3068 22.4227 38.1073 20.7079 40.3283 20.7079C41.1747 20.7079 41.9995 20.9622 42.6853 21.4346C43.6305 22.087 44.2327 23.3225 44.2327 25.1017V30.9109C44.2327 31.405 45.0692 31.8103 45.9058 31.8103H50.3932C52.2836 31.8103 53.8169 33.2336 53.8589 35.0029C53.8869 36.1824 53.1483 39.8335 51.643 47.4641Z" stroke="white" stroke-width="1.60838" stroke-linecap="round" stroke-linejoin="round"/>
</g>
<defs>
<clipPath id="clip0_1_229">
<rect width="75.5938" height="75.5938" fill="white" transform="translate(0.582153)"/>
</clipPath>
</defs>
</svg>
