<svg width="77" height="76" viewBox="0 0 77 76" fill="none" xmlns="http://www.w3.org/2000/svg">
<g clip-path="url(#clip0_1_242)">
<path opacity="0.06" d="M55.3974 0H21.6214C10.0738 0 0.712524 9.36124 0.712524 20.9089V54.6848C0.712524 66.2325 10.0738 75.5938 21.6214 75.5938H55.3974C66.945 75.5938 76.3063 66.2325 76.3063 54.6848V20.9089C76.3063 9.36124 66.945 0 55.3974 0Z" fill="#FF6F35"/>
<path d="M38.5094 63.5373C52.7255 63.5373 64.2498 52.013 64.2498 37.7969C64.2498 23.5809 52.7255 12.0565 38.5094 12.0565C24.2934 12.0565 12.769 23.5809 12.769 37.7969C12.769 52.013 24.2934 63.5373 38.5094 63.5373Z" fill="#FFCD1D"/>
<path d="M38.5094 21.5791V54.0148" stroke="white" stroke-width="2.41257" stroke-linecap="round" stroke-linejoin="round"/>
<path d="M45.8812 27.4764H34.8236C33.455 27.4764 32.1425 28.0201 31.1747 28.9878C30.207 29.9555 29.6633 31.268 29.6633 32.6366C29.6633 34.0052 30.207 35.3177 31.1747 36.2854C32.1425 37.2531 33.455 37.7968 34.8236 37.7968H42.1952C43.5638 37.7968 44.8763 38.3405 45.8441 39.3082C46.8119 40.2759 47.3555 41.5884 47.3555 42.9571C47.3555 44.3256 46.8119 45.6382 45.8441 46.6058C44.8763 47.5736 43.5638 48.1172 42.1952 48.1172H29.6633" stroke="white" stroke-width="2.41257" stroke-linecap="round" stroke-linejoin="round"/>
</g>
<defs>
<clipPath id="clip0_1_242">
<rect width="75.5938" height="75.5938" fill="white" transform="translate(0.712524)"/>
</clipPath>
</defs>
</svg>
