<svg width="77" height="77" viewBox="0 0 77 77" fill="none" xmlns="http://www.w3.org/2000/svg">
<g clip-path="url(#clip0_1_254)">
<path opacity="0.06" d="M55.3974 0.59375H21.6214C10.0738 0.59375 0.712524 9.95499 0.712524 21.5027V55.2786C0.712524 66.8263 10.0738 76.1875 21.6214 76.1875H55.3974C66.945 76.1875 76.3063 66.8263 76.3063 55.2786V21.5027C76.3063 9.95499 66.945 0.59375 55.3974 0.59375Z" fill="#5CC97B"/>
<path d="M38.5094 64.1311C52.7255 64.1311 64.2498 52.6067 64.2498 38.3907C64.2498 24.1746 52.7255 12.6503 38.5094 12.6503C24.2934 12.6503 12.769 24.1746 12.769 38.3907C12.769 52.6067 24.2934 64.1311 38.5094 64.1311Z" fill="#5CC97B"/>
<path fill-rule="evenodd" clip-rule="evenodd" d="M41.2664 44.7636C39.4234 45.9823 37.1937 46.6533 34.8179 46.5551C28.8088 46.307 24.1384 41.2339 24.3865 35.2245C24.6347 29.2151 29.7075 24.5455 35.7167 24.7936C41.7248 25.0417 46.3963 30.1138 46.1481 36.1233C46.0606 38.2416 45.3735 40.1935 44.2572 41.8223L51.5938 48.9458C52.499 49.9273 52.4666 51.4443 51.5366 52.3843L51.4938 52.4236L51.4486 52.4628C50.4377 53.3123 48.923 53.2212 48.0187 52.239L41.2664 44.7636ZM34.9216 44.0434C30.2994 43.8525 26.7066 39.9501 26.8975 35.3279C27.0884 30.7056 30.9908 27.1128 35.613 27.3037C40.2352 27.4947 43.8281 31.397 43.6372 36.0192C43.4463 40.6415 39.5439 44.2343 34.9216 44.0434Z" fill="white"/>
</g>
<defs>
<clipPath id="clip0_1_254">
<rect width="75.5938" height="75.5938" fill="white" transform="translate(0.712524 0.59375)"/>
</clipPath>
</defs>
</svg>
