<svg width="21" height="21" viewBox="0 0 21 21" fill="none" xmlns="http://www.w3.org/2000/svg">
<path d="M7.06592 4.49977C7.06572 4.8976 6.90749 5.27905 6.62605 5.56021C6.3446 5.84138 5.96299 5.99922 5.56517 5.99902C5.16734 5.99882 4.78589 5.8406 4.50473 5.55915C4.22356 5.27771 4.06572 4.8961 4.06592 4.49827C4.06612 4.10045 4.22434 3.719 4.50579 3.43783C4.78723 3.15667 5.16884 2.99882 5.56667 2.99902C5.96449 2.99922 6.34594 3.15745 6.62711 3.43889C6.90827 3.72034 7.06612 4.10195 7.06592 4.49977ZM7.11092 7.10977H4.11092V16.4998H7.11092V7.10977ZM11.8509 7.10977H8.86592V16.4998H11.8209V11.5723C11.8209 8.82727 15.3984 8.57227 15.3984 11.5723V16.4998H18.3609V10.5523C18.3609 5.92477 13.0659 6.09727 11.8209 8.36977L11.8509 7.10977Z" fill="#75757F"/>
</svg>
