<svg width="15" height="13" viewBox="0 0 15 13" fill="none" xmlns="http://www.w3.org/2000/svg">
<path d="M13.2199 2.65097C13.8483 2.24332 14.2644 1.68692 14.4682 0.9793C13.8569 1.32202 13.2479 1.55707 12.6397 1.68692C12.093 1.0656 11.4008 0.75 10.5709 0.75C9.75977 0.75 9.07459 1.0508 8.51539 1.63597C7.95931 2.22524 7.67855 2.94108 7.67855 3.77692C7.67855 4.03087 7.70888 4.25771 7.76955 4.45002C5.37724 4.36373 3.39712 3.31503 1.83699 1.29654C1.57256 1.79048 1.44034 2.29346 1.44034 2.81369C1.44034 3.88294 1.86732 4.73028 2.71972 5.35242C2.23363 5.30887 1.8051 5.17901 1.44034 4.96615C1.44034 5.72966 1.65267 6.36742 2.07809 6.92875C2.50506 7.48433 3.05336 7.83856 3.72299 7.98978C3.48034 8.05553 3.22447 8.08676 2.96159 8.08676C2.71894 8.08676 2.54706 8.06539 2.44518 8.01854C2.62406 8.64069 2.96159 9.14532 3.44923 9.53159C3.93532 9.91951 4.49451 10.1242 5.12292 10.1422C4.08697 11.0011 2.90248 11.426 1.56245 11.426C1.23424 11.426 1.0017 11.421 0.860931 11.3947C2.18075 12.3004 3.64989 12.75 5.27535 12.75C6.93893 12.75 8.40885 12.3046 9.68822 11.4137C10.9676 10.5277 11.9118 9.43461 12.5184 8.14757C13.1281 6.86218 13.4299 5.52419 13.4299 4.12703V3.7424C14.0194 3.27394 14.4962 2.7463 14.8609 2.1636C14.3321 2.40441 13.7853 2.56796 13.2199 2.65097Z" fill="#75757F"/>
</svg>
