<svg width="17" height="13" viewBox="0 0 17 13" fill="none" xmlns="http://www.w3.org/2000/svg">
<path d="M16.5266 2.62759C16.3426 1.88853 15.8004 1.30647 15.112 1.10894C13.8643 0.75 8.86093 0.75 8.86093 0.75C8.86093 0.75 3.85762 0.75 2.60984 1.10894C1.92145 1.3065 1.37928 1.88853 1.19527 2.62759C0.860931 3.96719 0.860931 6.76213 0.860931 6.76213C0.860931 6.76213 0.860931 9.55706 1.19527 10.8967C1.37928 11.6357 1.92145 12.1935 2.60984 12.3911C3.85762 12.75 8.86093 12.75 8.86093 12.75C8.86093 12.75 13.8642 12.75 15.112 12.3911C15.8004 12.1935 16.3426 11.6357 16.5266 10.8967C16.8609 9.55706 16.8609 6.76213 16.8609 6.76213C16.8609 6.76213 16.8609 3.96719 16.5266 2.62759ZM7.22456 9.29972V4.22453L11.4064 6.76219L7.22456 9.29972Z" fill="#75757F"/>
</svg>
