<svg width="17" height="17" viewBox="0 0 17 17" fill="none" xmlns="http://www.w3.org/2000/svg">
<path fill-rule="evenodd" clip-rule="evenodd" d="M5.66093 0.75H12.0609C14.7119 0.75 16.8609 2.89903 16.8609 5.55V11.95C16.8609 14.601 14.7119 16.75 12.0609 16.75H5.66093C3.00996 16.75 0.860931 14.601 0.860931 11.95V5.55C0.860931 2.89903 3.00996 0.75 5.66093 0.75ZM5.66093 2.35C3.89362 2.35 2.46093 3.78269 2.46093 5.55V11.95C2.46093 13.7173 3.89362 15.15 5.66093 15.15H12.0609C13.8282 15.15 15.2609 13.7173 15.2609 11.95V5.55C15.2609 3.78269 13.8282 2.35 12.0609 2.35H5.66093ZM8.86093 12.75C6.65179 12.75 4.86093 10.9591 4.86093 8.75C4.86093 6.54086 6.65179 4.75 8.86093 4.75C11.0701 4.75 12.8609 6.54086 12.8609 8.75C12.8609 10.9591 11.0701 12.75 8.86093 12.75ZM8.86093 11.15C10.1864 11.15 11.2609 10.0755 11.2609 8.75C11.2609 7.42452 10.1864 6.35 8.86093 6.35C7.53545 6.35 6.46093 7.42452 6.46093 8.75C6.46093 10.0755 7.53545 11.15 8.86093 11.15ZM12.8609 5.55C12.4191 5.55 12.0609 5.19183 12.0609 4.75C12.0609 4.30817 12.4191 3.95 12.8609 3.95C13.3028 3.95 13.6609 4.30817 13.6609 4.75C13.6609 5.19183 13.3028 5.55 12.8609 5.55Z" fill="#75757F"/>
</svg>
